<svg xmlns="http://www.w3.org/2000/svg" xmlns:xlink="http://www.w3.org/1999/xlink" viewBox="0,0,256,256" width="200px" height="200px" fill-rule="nonzero"><g fill="#ffffff" fill-rule="nonzero" stroke="none" stroke-width="1" stroke-linecap="butt" stroke-linejoin="miter" stroke-miterlimit="10" stroke-dasharray="" stroke-dashoffset="0" font-family="none" font-weight="none" font-size="none" text-anchor="none" style="mix-blend-mode: normal"><g transform="scale(5.12,5.12)"><path d="M18,1c-0.2652,0.00005 -0.51952,0.10543 -0.70703,0.29297l-4.49023,4.49023l-0.77539,-0.38867c-0.00065,0 -0.0013,0 -0.00195,0c-1.92158,-0.96081 -4.25079,-0.5832 -5.76953,0.93555c-0.03451,0.03409 -0.0665,0.07064 -0.0957,0.10938l-2.96094,3.96094c-0.25393,0.33928 -0.26645,0.80177 -0.03125,1.1543l1.67773,2.51758l-1.74023,3.48047c-0.11774,0.23613 -0.13739,0.50921 -0.05469,0.75977l5.76563,17.47461c0.0019,0.00588 0.00385,0.01174 0.00586,0.01758c0.87551,2.50113 2.62389,4.60161 4.92383,5.91602l10.75781,6.14844c0.30742,0.17562 0.68477,0.17562 0.99219,0l10.75781,-6.14844c2.30112,-1.31445 4.04841,-3.41513 4.92383,-5.91602c0.00201,-0.00584 0.00396,-0.0117 0.00586,-0.01758l5.76563,-17.47461c0.08271,-0.25055 0.06305,-0.52364 -0.05469,-0.75977l-1.74023,-3.48047l1.67773,-2.51758c0.2352,-0.35253 0.22268,-0.81501 -0.03125,-1.1543l-2.96094,-3.96094c-0.02865,-0.03799 -0.05998,-0.07389 -0.09375,-0.10742c-1.51875,-1.51875 -3.84986,-1.89636 -5.77148,-0.93555v-0.00195l-0.77734,0.38867l-4.49023,-4.49023c-0.18751,-0.18754 -0.44183,-0.29292 -0.70703,-0.29297zM18.41406,3h13.17188l4.70703,4.70703c0.30433,0.30438 0.76927,0.37991 1.1543,0.1875l1.42188,-0.70898c0,-0.00065 0,-0.0013 0,-0.00195c1.15069,-0.57535 2.52601,-0.34931 3.44141,0.55078l2.46484,3.29883l-1.60742,2.41211c-0.19909,0.29858 -0.22294,0.68095 -0.0625,1.00195l1.81641,3.63086l-5.63281,17.07031c-0.71706,2.04527 -2.14575,3.76112 -4.02734,4.83594l-10.26172,5.86328l-10.26172,-5.86328c-1.88078,-1.07486 -3.31037,-2.79091 -4.02734,-4.83594c-0.00049,-0.0014 -0.00145,-0.00251 -0.00195,-0.00391l-5.63086,-17.06641l1.81641,-3.63086c0.16044,-0.32101 0.13659,-0.70337 -0.0625,-1.00195l-1.60742,-2.41211l2.4668,-3.30078c0.9154,-0.90007 2.28877,-1.12417 3.43945,-0.54883l1.42188,0.71094c0.38503,0.19241 0.84997,0.11688 1.1543,-0.1875zM25,7.97266c-1.22029,0 -2.44141,0.32606 -3.52539,0.97656c-1.06687,0.64012 -2.33385,0.85873 -3.55469,0.61523l0.00195,0.00195l-2.72461,-0.54687c-0.41492,-0.08321 -0.83729,0.10373 -1.05469,0.4668l-3.72461,6.21289l0.04492,-0.06836c-1.01111,1.41555 -0.98822,3.33514 0.05469,4.72656l4.25781,5.67773l-0.17578,0.26367c-1.08996,1.63558 -1.03195,3.7918 0.14844,5.36523c0.08409,0.1113 0.19054,0.20377 0.3125,0.27148c0.57699,0.66887 1.26075,1.20258 1.98242,1.5625l7.30664,6.26172c0.37437,0.32049 0.92641,0.32049 1.30078,0l7.30469,-6.26172c0.71881,-0.359 1.40075,-0.89106 1.97656,-1.55664c0.12555,-0.06908 0.23478,-0.16433 0.32031,-0.2793c1.17892,-1.57317 1.2386,-3.72741 0.14844,-5.36328l-0.17578,-0.26562l4.25781,-5.67578c1.04446,-1.39172 1.06555,-3.31135 0.05469,-4.72656l0.04297,0.06836l-3.72266,-6.21289c-0.21713,-0.36229 -0.63846,-0.54911 -1.05273,-0.4668l-2.72656,0.54492c-1.22006,0.24418 -2.48553,0.02509 -3.55273,-0.61523c-0.07916,-0.04804 -0.16462,-0.08485 -0.25391,-0.10937c-1.02158,-0.55755 -2.14174,-0.86719 -3.27148,-0.86719zM25,9.9707c0.86321,0 1.72707,0.23186 2.49609,0.69336c0.10459,0.06268 0.21977,0.10571 0.33984,0.12695c1.42264,0.75495 3.0475,1.05204 4.63477,0.73438l2.0332,-0.40625l3.36133,5.60742c0.01404,0.02339 0.02902,0.0462 0.04492,0.06836c0.50914,0.71279 0.49819,1.66105 -0.02734,2.36133l-4.68359,6.24414c-0.25393,0.33928 -0.26645,0.80177 -0.03125,1.1543l0.56836,0.85352c0.62384,0.93612 0.59109,2.15386 -0.08398,3.05469c-0.66192,0.88306 -2.16101,1.53711 -2.65234,1.53711c0.1005,0 -0.13426,-0.03265 -0.46094,-0.22266c-0.32668,-0.19001 -0.76326,-0.49434 -1.26367,-0.86719c-0.88821,-0.66179 -2.02493,-1.54568 -3.27539,-2.41797v-0.92578l4.51563,-2.70898c0.377,-0.227 0.56308,-0.67261 0.45508,-1.09961l-1.44336,-5.77148c0.175,-0.276 0.44098,-0.51642 0.83398,-0.73242l4.63867,-2.25391l-2,-1h-2l-0.01367,0.01367c-0.1,0.002 -0.20273,0.00411 -0.30273,0.03711l-3,1c-0.495,0.166 -0.77934,0.68541 -0.65234,1.19141l1.82031,7.28125l-3.85156,2.31055l-3.84961,-2.31055l1.82031,-7.28125c0.126,-0.507 -0.1583,-1.02445 -0.6543,-1.18945l-3,-1c-0.101,-0.034 -0.20173,-0.03611 -0.30273,-0.03711l-0.01367,-0.01562h-2l-2,1l4.63867,2.25391c0.393,0.215 0.65898,0.45547 0.83398,0.73047l-1.44336,5.77344c-0.106,0.427 0.07903,0.87361 0.45703,1.09961l4.51367,2.70898v0.92188c-1.32366,0.91182 -2.47891,1.80791 -3.34961,2.46094c-0.48933,0.367 -0.90744,0.66329 -1.2168,0.84375c-0.30936,0.18041 -0.51693,0.20703 -0.43359,0.20703c-0.49133,0 -1.99049,-0.65294 -2.65234,-1.53516c-0.67561,-0.90057 -0.70803,-2.12022 -0.08398,-3.05664l0.56836,-0.85352c0.2352,-0.35253 0.22268,-0.81501 -0.03125,-1.1543l-4.68359,-6.24219v-0.00195c-0.52394,-0.70042 -0.53587,-1.6494 -0.02734,-2.36133c0.01524,-0.0222 0.02957,-0.045 0.04297,-0.06836l3.36133,-5.60742l2.03516,0.4082c1.70716,0.3405 3.48148,0.03259 4.97461,-0.86328c0.76901,-0.46145 1.63289,-0.69336 2.49609,-0.69336zM24.99805,30.24023c1.11822,0.79026 2.19575,1.61308 3.08203,2.27344c0.52346,0.39002 0.99996,0.7286 1.45313,0.99219c0.07128,0.04146 0.14271,0.07032 0.21289,0.10938l-4.74609,4.06836l-4.74609,-4.06836c0.06164,-0.03432 0.12547,-0.05952 0.1875,-0.0957c0.44064,-0.25704 0.89754,-0.58575 1.4082,-0.96875c0.86792,-0.65094 1.96854,-1.48695 3.14844,-2.31055z"></path></g></g></svg>